             <svg
                  id="Spotify_LOGO"
                  data-name="Spotify LOGO"
                  xmlns="http://www.w3.org/2000/svg"
                  width="127.616"
                  height="38.313"
                  viewBox="0 0 127.616 38.313"
                >
                  <path
                    id="Path_335"
                    data-name="Path 335"
                    d="M243.264,51.678a2.073,2.073,0,0,1-2.064-2.064,2.1,2.1,0,0,1,2.114-2.114,2.073,2.073,0,0,1,2.064,2.064,2.161,2.161,0,0,1-2.114,2.114m0-3.977a1.87,1.87,0,0,0-1.863,1.913,1.827,1.827,0,0,0,1.863,1.863,1.888,1.888,0,0,0,0-3.776m.453,2.114.6.805h-.5l-.554-.755h-.453v.755h-.4V48.406h.956c.5,0,.856.252.856.7a.671.671,0,0,1-.5.7m-.352-1.007h-.554v.7h.554a.407.407,0,0,0,.453-.352c0-.2-.151-.352-.453-.352"
                    transform="translate(-117.763 -32.875)"
                    fill="#fff"
                  />
                  <path
                    id="Path_336"
                    data-name="Path 336"
                    d="M19.157,0A19.157,19.157,0,1,0,38.313,19.157,19.184,19.184,0,0,0,19.157,0m8.8,27.654a1.211,1.211,0,0,1-1.659.4C21.771,25.291,16.14,24.687,9.453,26.2a1.183,1.183,0,1,1-.5-2.313c7.291-1.659,13.576-.955,18.6,2.112a1.179,1.179,0,0,1,.4,1.659m2.363-5.229a1.536,1.536,0,0,1-2.061.5c-5.129-3.168-13.023-4.073-19.106-2.212A1.5,1.5,0,0,1,8.3,17.849c6.939-2.112,15.637-1.106,21.52,2.564a1.465,1.465,0,0,1,.5,2.011m.2-5.43c-6.184-3.67-16.391-4.022-22.274-2.212A1.782,1.782,0,0,1,7.24,11.363C14.028,9.3,25.291,9.7,32.38,13.928a1.75,1.75,0,0,1,.6,2.464,1.792,1.792,0,0,1-2.464.6"
                    fill="#fff"
                  />
                  <path
                    id="Path_337"
                    data-name="Path 337"
                    d="M95.737,27.792c-3.318-.8-3.922-1.358-3.922-2.514,0-1.106,1.056-1.86,2.564-1.86a7.5,7.5,0,0,1,4.525,1.71.185.185,0,0,0,.151.05c.05,0,.1-.05.151-.1l1.609-2.263a.237.237,0,0,0-.05-.3A9.92,9.92,0,0,0,94.43,20.3c-3.57,0-6.084,2.162-6.084,5.229,0,3.268,2.162,4.475,5.883,5.38,3.168.754,3.721,1.358,3.721,2.413,0,1.207-1.106,1.961-2.816,1.961a7.716,7.716,0,0,1-5.279-2.162.185.185,0,0,0-.151-.05c-.05,0-.1.05-.151.1l-1.81,2.162c-.1.1-.05.2,0,.3a10.943,10.943,0,0,0,7.291,2.816c3.872,0,6.335-2.112,6.335-5.38.05-2.765-1.559-4.274-5.631-5.279"
                    transform="translate(-43.597 -10.093)"
                    fill="#fff"
                  />
                  <path
                    id="Path_338"
                    data-name="Path 338"
                    d="M124.942,28.7a5.232,5.232,0,0,0-4.173,2.011V29.2a.216.216,0,0,0-.2-.2H117.6a.216.216,0,0,0-.2.2V46.047a.216.216,0,0,0,.2.2h2.967a.216.216,0,0,0,.2-.2v-5.33a5.371,5.371,0,0,0,4.173,1.911c3.117,0,6.235-2.363,6.235-6.939s-3.168-6.989-6.235-6.989m2.765,6.939c0,2.313-1.408,3.922-3.469,3.922a3.7,3.7,0,0,1-3.57-3.922,3.644,3.644,0,0,1,3.57-3.922c2.011,0,3.469,1.659,3.469,3.922"
                    transform="translate(-58.371 -14.27)"
                    fill="#fff"
                  />
                  <path
                    id="Path_339"
                    data-name="Path 339"
                    d="M153.74,28.7a6.965,6.965,0,1,0,7.089,6.939A7.008,7.008,0,0,0,153.74,28.7m0,10.911a3.775,3.775,0,0,1-3.721-3.972,3.692,3.692,0,0,1,3.67-3.922,3.784,3.784,0,0,1,3.771,3.972,3.674,3.674,0,0,1-3.721,3.922"
                    transform="translate(-72.89 -14.27)"
                    fill="#fff"
                  />
                  <path
                    id="Path_340"
                    data-name="Path 340"
                    d="M183.746,25.72h-3.268V22.4a.216.216,0,0,0-.2-.2H177.31a.216.216,0,0,0-.2.2V25.72H175.7a.216.216,0,0,0-.2.2v2.564a.216.216,0,0,0,.2.2h1.408v6.587c0,2.665,1.307,4.022,3.922,4.022a5.04,5.04,0,0,0,2.765-.7.261.261,0,0,0,.1-.2V35.977a.381.381,0,0,0-.1-.2.153.153,0,0,0-.2,0,3.491,3.491,0,0,1-1.76.4c-.955,0-1.358-.453-1.358-1.408V28.736h3.268a.216.216,0,0,0,.2-.2V25.971a.23.23,0,0,0-.2-.251"
                    transform="translate(-87.259 -11.038)"
                    fill="#fff"
                  />
                  <path
                    id="Path_341"
                    data-name="Path 341"
                    d="M209.578,24.179v-.4c0-1.207.453-1.76,1.508-1.76a4.621,4.621,0,0,1,1.659.3.3.3,0,0,0,.2-.05.261.261,0,0,0,.1-.2V19.553c0-.1-.05-.2-.151-.2A9.216,9.216,0,0,0,210.433,19c-2.715,0-4.173,1.559-4.173,4.475v.6H204.8a.216.216,0,0,0-.2.2v2.564a.216.216,0,0,0,.2.2h1.408V37.2a.216.216,0,0,0,.2.2h2.967a.216.216,0,0,0,.2-.2V27.145h2.765L216.567,37.3c-.5,1.056-.955,1.257-1.609,1.257a3.4,3.4,0,0,1-1.609-.453.094.094,0,0,0-.151,0c-.05,0-.1.05-.151.1l-1.006,2.212c-.05.1,0,.2.1.3a6.453,6.453,0,0,0,3.168.8c2.212,0,3.419-1.006,4.475-3.771l5.129-13.274c.05-.05,0-.151,0-.2a.261.261,0,0,0-.2-.1h-3.067c-.1,0-.151.05-.2.151l-3.168,9.05-3.469-9.05c-.05-.1-.1-.151-.2-.151Z"
                    transform="translate(-101.727 -9.447)"
                    fill="#fff"
                  />
                  <path
                    id="Path_342"
                    data-name="Path 342"
                    d="M198.268,29.2H195.3a.216.216,0,0,0-.2.2V42.323a.216.216,0,0,0,.2.2h2.967a.216.216,0,0,0,.2-.2V29.451a.23.23,0,0,0-.2-.251"
                    transform="translate(-97.004 -14.518)"
                    fill="#fff"
                  />
                  <path
                    id="Path_343"
                    data-name="Path 343"
                    d="M196.412,17.5a2.112,2.112,0,1,0,2.112,2.112,2.124,2.124,0,0,0-2.112-2.112"
                    transform="translate(-96.606 -8.701)"
                    fill="#fff"
                  />
                </svg>